<?xml version="1.0" standalone="no"?>
<!DOCTYPE svg PUBLIC "-//W3C//DTD SVG 20010904//EN"
 "http://www.w3.org/TR/2001/REC-SVG-20010904/DTD/svg10.dtd">
<svg version="1.0" xmlns="http://www.w3.org/2000/svg"
 width="260.000000pt" height="260.000000pt" viewBox="0 0 260.000000 260.000000"
 preserveAspectRatio="xMidYMid meet">
<metadata>
Created by potrace 1.11, written by Peter Selinger 2001-2013
</metadata>
<g transform="translate(0.000000,260.000000) scale(0.100000,-0.100000)"
fill="#000000" stroke="none">
<path d="M465 1639 c-23 -64 -45 -135 -45 -147 0 -9 9 -26 20 -37 l21 -22 -32
-79 c-73 -184 -69 -171 -54 -184 11 -9 12 -7 9 8 -6 22 81 250 92 239 6 -5
-41 -199 -56 -235 -8 -18 -7 -23 1 -20 7 2 26 59 43 126 30 118 32 123 66 140
30 14 39 28 62 92 29 82 32 94 20 86 -4 -3 -19 -39 -32 -82 -18 -55 -30 -79
-46 -86 -31 -14 -71 -2 -89 26 -14 21 -14 30 9 102 14 43 23 80 21 83 -3 2 -7
-2 -10 -10z"/>
<path d="M505 1629 c-26 -71 -44 -133 -40 -137 5 -5 6 -4 35 82 11 33 18 61
15 64 -2 3 -7 -1 -10 -9z"/>
<path d="M555 1609 c-27 -74 -43 -129 -37 -129 9 0 54 132 47 138 -3 3 -7 -1
-10 -9z"/>
<path d="M164 1586 c-63 -28 -103 -111 -104 -216 0 -67 17 -117 54 -157 28
-31 40 -37 89 -41 77 -6 127 4 127 27 0 27 -7 29 -51 20 -87 -20 -141 37 -143
151 -1 77 10 123 39 154 27 30 79 35 111 12 17 -13 21 -12 37 1 24 22 22 30
-13 48 -36 18 -104 19 -146 1z"/>
<path d="M907 1593 c-4 -3 -7 -100 -7 -215 l0 -208 121 0 c119 0 120 0 117 23
-3 20 -9 22 -85 25 l-83 3 0 189 0 190 -28 0 c-16 0 -32 -3 -35 -7z"/>
<path d="M1240 1578 c-64 -33 -93 -95 -93 -203 0 -139 53 -205 165 -205 76 0
108 13 101 39 -5 20 -19 21 -70 6 -6 -2 -28 1 -48 6 -49 14 -74 68 -75 162 0
135 62 198 150 152 27 -14 30 -14 40 4 14 27 14 29 -20 46 -41 21 -99 19 -150
-7z"/>
<path d="M1491 1443 c0 -181 9 -217 58 -250 44 -30 140 -32 190 -5 62 33 71
65 71 249 l0 163 -29 0 -29 0 -3 -159 c-4 -142 -6 -163 -25 -187 -24 -33 -57
-44 -101 -32 -59 15 -68 43 -72 220 l-3 158 -29 0 -29 0 1 -157z"/>
<path d="M1910 1385 l0 -215 115 0 115 0 0 25 c0 25 -1 25 -85 25 l-85 0 0
190 0 190 -30 0 -30 0 0 -215z"/>
<path d="M2322 1583 c-5 -10 -32 -79 -60 -153 -28 -74 -62 -163 -76 -198 l-25
-63 36 3 c33 3 37 7 55 56 l19 52 83 0 82 0 18 -55 c17 -54 18 -55 55 -55 l38
0 -82 213 c-75 197 -83 212 -107 215 -18 2 -30 -3 -36 -15z m62 -158 c14 -44
26 -83 26 -87 0 -5 -27 -8 -61 -8 -54 0 -60 2 -54 18 4 9 16 46 27 82 21 67
28 84 33 78 2 -2 15 -39 29 -83z"/>
<path d="M2475 1060 c-10 -11 -14 -20 -8 -20 5 0 18 9 28 20 10 11 14 20 8 20
-5 0 -18 -9 -28 -20z"/>
<path d="M1438 1023 c-9 -19 -12 -36 -7 -44 5 -8 9 -33 9 -56 0 -39 19 -73 41
-73 14 0 11 16 -6 30 -19 16 -19 69 0 97 10 15 12 24 4 28 -6 4 -14 16 -18 28
-7 19 -9 19 -23 -10z"/>
<path d="M2091 983 c-67 -56 -5 -159 76 -126 13 6 8 9 -22 13 -31 4 -41 10
-43 26 -3 18 4 22 38 28 47 7 60 28 35 56 -22 25 -56 26 -84 3z m64 -23 c0
-21 -5 -25 -29 -25 -35 0 -43 16 -20 39 23 24 49 16 49 -14z"/>
<path d="M2410 945 c0 -42 5 -60 21 -76 11 -11 27 -18 36 -15 8 3 28 6 44 6
l29 0 0 71 c0 52 -3 70 -12 67 -7 -3 -14 -22 -16 -44 -5 -75 -10 -86 -40 -82
-24 3 -27 8 -30 43 -6 97 -32 121 -32 30z"/>
<path d="M1544 977 c-3 -8 -1 -36 3 -63 l8 -49 58 -3 57 -3 0 59 c0 77 -12 87
-25 21 -10 -54 -31 -77 -59 -66 -12 5 -16 19 -16 56 0 49 -15 76 -26 48z"/>
<path d="M1839 983 c-18 -4 -36 -94 -23 -115 10 -15 22 17 23 58 1 35 23 59
45 51 10 -4 16 -24 18 -58 4 -70 23 -74 31 -8 4 29 12 56 18 60 21 13 38 -2
44 -39 12 -71 24 -81 24 -21 1 34 -4 60 -11 66 -13 10 -137 14 -169 6z"/>
<path d="M2240 933 c0 -29 0 -55 0 -58 0 -3 3 -5 8 -5 4 -1 10 19 14 44 8 56
14 66 39 66 22 0 39 -35 39 -80 0 -16 5 -32 10 -35 16 -10 12 100 -3 114 -8 6
-35 10 -60 9 l-47 -2 0 -53z"/>
</g>
</svg>
